<mxfile host="app.diagrams.net" modified="2024-06-18T11:55:20.162Z" agent="Mozilla/5.0 (Windows NT 10.0; Win64; x64) AppleWebKit/537.36 (KHTML, like Gecko) Chrome/121.0.0.0 Safari/537.36" etag="WVuw1SOQ1tLlXs-RHAbq" version="24.5.5" type="device">
  <diagram id="C5RBs43oDa-KdzZeNtuy" name="Page-1">
    <mxGraphModel dx="1434" dy="772" grid="1" gridSize="10" guides="1" tooltips="1" connect="1" arrows="1" fold="1" page="1" pageScale="1" pageWidth="827" pageHeight="1169" math="0" shadow="0">
      <root>
        <mxCell id="WIyWlLk6GJQsqaUBKTNV-0" />
        <mxCell id="WIyWlLk6GJQsqaUBKTNV-1" parent="WIyWlLk6GJQsqaUBKTNV-0" />
        <mxCell id="zkfFHV4jXpPFQw0GAbJ--0" value="Cliente" style="swimlane;fontStyle=2;align=center;verticalAlign=top;childLayout=stackLayout;horizontal=1;startSize=26;horizontalStack=0;resizeParent=1;resizeLast=0;collapsible=1;marginBottom=0;rounded=0;shadow=0;strokeWidth=1;fillColor=#c87cee;strokeColor=#006EAF;fontColor=#1C1C1C;" parent="WIyWlLk6GJQsqaUBKTNV-1" vertex="1">
          <mxGeometry x="40" y="40" width="160" height="440" as="geometry">
            <mxRectangle x="230" y="140" width="160" height="26" as="alternateBounds" />
          </mxGeometry>
        </mxCell>
        <mxCell id="zkfFHV4jXpPFQw0GAbJ--2" value="- Nome&#xa;- CNPJ&#xa;- Telefone&#xa;- Endereço &#xa;- Cidade &#xa;- Estado&#xa;- E-mail &#xa;- CEP&#xa;- IdCliente " style="text;align=left;verticalAlign=top;spacingLeft=4;spacingRight=4;overflow=hidden;rotatable=0;points=[[0,0.5],[1,0.5]];portConstraint=eastwest;rounded=0;shadow=0;html=0;" parent="zkfFHV4jXpPFQw0GAbJ--0" vertex="1">
          <mxGeometry y="26" width="160" height="154" as="geometry" />
        </mxCell>
        <mxCell id="zkfFHV4jXpPFQw0GAbJ--4" value="" style="line;html=1;strokeWidth=1;align=left;verticalAlign=middle;spacingTop=-1;spacingLeft=3;spacingRight=3;rotatable=0;labelPosition=right;points=[];portConstraint=eastwest;" parent="zkfFHV4jXpPFQw0GAbJ--0" vertex="1">
          <mxGeometry y="180" width="160" height="8" as="geometry" />
        </mxCell>
        <mxCell id="zkfFHV4jXpPFQw0GAbJ--5" value="+ SetNome&#xa;+ GetNome&#xa;+SetCNPJ&#xa;+GetCNPJ&#xa;+ SetTelefone&#xa;+ GetTelefone&#xa;+ SetEndereço&#xa;+ GetEndereço &#xa;+ SetCidade&#xa;+ GetCidade&#xa;+ SetEstado&#xa;+ GetEstado &#xa;+ SetEmail&#xa;+ GetEmail&#xa;+ SetCEP&#xa;+ GetCEP" style="text;align=left;verticalAlign=top;spacingLeft=4;spacingRight=4;overflow=hidden;rotatable=0;points=[[0,0.5],[1,0.5]];portConstraint=eastwest;" parent="zkfFHV4jXpPFQw0GAbJ--0" vertex="1">
          <mxGeometry y="188" width="160" height="252" as="geometry" />
        </mxCell>
        <mxCell id="ufXeh0rlqe1aA6A5v5uA-0" value="Lote" style="swimlane;fontStyle=2;align=center;verticalAlign=top;childLayout=stackLayout;horizontal=1;startSize=26;horizontalStack=0;resizeParent=1;resizeLast=0;collapsible=1;marginBottom=0;rounded=0;shadow=0;strokeWidth=1;fillColor=#c87cee;strokeColor=#006EAF;fontColor=#0F0F0F;" parent="WIyWlLk6GJQsqaUBKTNV-1" vertex="1">
          <mxGeometry x="240" y="40" width="160" height="440" as="geometry">
            <mxRectangle x="230" y="140" width="160" height="26" as="alternateBounds" />
          </mxGeometry>
        </mxCell>
        <mxCell id="ufXeh0rlqe1aA6A5v5uA-1" value="- Nome do lote&#xa;- Nome da empresa&#xa;- Quantidade&#xa;- Tamanho&#xa;- Cor &#xa;- Média diária &#xa;- IdLote" style="text;align=left;verticalAlign=top;spacingLeft=4;spacingRight=4;overflow=hidden;rotatable=0;points=[[0,0.5],[1,0.5]];portConstraint=eastwest;rounded=0;shadow=0;html=0;" parent="ufXeh0rlqe1aA6A5v5uA-0" vertex="1">
          <mxGeometry y="26" width="160" height="154" as="geometry" />
        </mxCell>
        <mxCell id="ufXeh0rlqe1aA6A5v5uA-2" value="" style="line;html=1;strokeWidth=1;align=left;verticalAlign=middle;spacingTop=-1;spacingLeft=3;spacingRight=3;rotatable=0;labelPosition=right;points=[];portConstraint=eastwest;" parent="ufXeh0rlqe1aA6A5v5uA-0" vertex="1">
          <mxGeometry y="180" width="160" height="8" as="geometry" />
        </mxCell>
        <mxCell id="ufXeh0rlqe1aA6A5v5uA-3" value="+SetNúmero&#xa;+GetNumero&#xa;+SetNome&#xa;+GetNome&#xa;+SetQuantidade&#xa;+GetQuantidade&#xa;+ SetTamanho&#xa;+GetTamanho&#xa;+SetCor&#xa;+GetCor&#xa;+SetMédia&#xa;+GetMédia" style="text;align=left;verticalAlign=top;spacingLeft=4;spacingRight=4;overflow=hidden;rotatable=0;points=[[0,0.5],[1,0.5]];portConstraint=eastwest;" parent="ufXeh0rlqe1aA6A5v5uA-0" vertex="1">
          <mxGeometry y="188" width="160" height="242" as="geometry" />
        </mxCell>
        <mxCell id="ufXeh0rlqe1aA6A5v5uA-5" value="Cliente_Lote" style="swimlane;fontStyle=2;align=center;verticalAlign=top;childLayout=stackLayout;horizontal=1;startSize=26;horizontalStack=0;resizeParent=1;resizeLast=0;collapsible=1;marginBottom=0;rounded=0;shadow=0;strokeWidth=1;fillColor=#c87cee;strokeColor=#9673a6;" parent="WIyWlLk6GJQsqaUBKTNV-1" vertex="1">
          <mxGeometry x="440" y="40" width="160" height="440" as="geometry">
            <mxRectangle x="230" y="140" width="160" height="26" as="alternateBounds" />
          </mxGeometry>
        </mxCell>
        <mxCell id="ufXeh0rlqe1aA6A5v5uA-6" value="- IdCliente&#xa;-IdLote" style="text;align=left;verticalAlign=top;spacingLeft=4;spacingRight=4;overflow=hidden;rotatable=0;points=[[0,0.5],[1,0.5]];portConstraint=eastwest;rounded=0;shadow=0;html=0;" parent="ufXeh0rlqe1aA6A5v5uA-5" vertex="1">
          <mxGeometry y="26" width="160" height="154" as="geometry" />
        </mxCell>
        <mxCell id="ufXeh0rlqe1aA6A5v5uA-7" value="" style="line;html=1;strokeWidth=1;align=left;verticalAlign=middle;spacingTop=-1;spacingLeft=3;spacingRight=3;rotatable=0;labelPosition=right;points=[];portConstraint=eastwest;" parent="ufXeh0rlqe1aA6A5v5uA-5" vertex="1">
          <mxGeometry y="180" width="160" height="8" as="geometry" />
        </mxCell>
        <mxCell id="ufXeh0rlqe1aA6A5v5uA-8" value="+SetIdCliente&#xa;+GetIdCliente&#xa;+SetIdLote&#xa;+GetIdLote" style="text;align=left;verticalAlign=top;spacingLeft=4;spacingRight=4;overflow=hidden;rotatable=0;points=[[0,0.5],[1,0.5]];portConstraint=eastwest;" parent="ufXeh0rlqe1aA6A5v5uA-5" vertex="1">
          <mxGeometry y="188" width="160" height="242" as="geometry" />
        </mxCell>
        <mxCell id="ufXeh0rlqe1aA6A5v5uA-9" value="Metadiaria" style="swimlane;fontStyle=2;align=center;verticalAlign=top;childLayout=stackLayout;horizontal=1;startSize=26;horizontalStack=0;resizeParent=1;resizeLast=0;collapsible=1;marginBottom=0;rounded=0;shadow=0;strokeWidth=1;fillColor=#c87cee;strokeColor=#9673a6;" parent="WIyWlLk6GJQsqaUBKTNV-1" vertex="1">
          <mxGeometry x="640" y="40" width="160" height="440" as="geometry">
            <mxRectangle x="230" y="140" width="160" height="26" as="alternateBounds" />
          </mxGeometry>
        </mxCell>
        <mxCell id="ufXeh0rlqe1aA6A5v5uA-10" value="- Quantidade diária&#xa;- IdMetadiaria" style="text;align=left;verticalAlign=top;spacingLeft=4;spacingRight=4;overflow=hidden;rotatable=0;points=[[0,0.5],[1,0.5]];portConstraint=eastwest;rounded=0;shadow=0;html=0;" parent="ufXeh0rlqe1aA6A5v5uA-9" vertex="1">
          <mxGeometry y="26" width="160" height="154" as="geometry" />
        </mxCell>
        <mxCell id="ufXeh0rlqe1aA6A5v5uA-11" value="" style="line;html=1;strokeWidth=1;align=left;verticalAlign=middle;spacingTop=-1;spacingLeft=3;spacingRight=3;rotatable=0;labelPosition=right;points=[];portConstraint=eastwest;" parent="ufXeh0rlqe1aA6A5v5uA-9" vertex="1">
          <mxGeometry y="180" width="160" height="8" as="geometry" />
        </mxCell>
        <mxCell id="ufXeh0rlqe1aA6A5v5uA-12" value="+Setquantidadediaria&#xa;+Getquantidadediaria&#xa;" style="text;align=left;verticalAlign=top;spacingLeft=4;spacingRight=4;overflow=hidden;rotatable=0;points=[[0,0.5],[1,0.5]];portConstraint=eastwest;" parent="ufXeh0rlqe1aA6A5v5uA-9" vertex="1">
          <mxGeometry y="188" width="160" height="242" as="geometry" />
        </mxCell>
        <mxCell id="ufXeh0rlqe1aA6A5v5uA-13" value="Metadiaria_Cliente" style="swimlane;fontStyle=2;align=center;verticalAlign=top;childLayout=stackLayout;horizontal=1;startSize=26;horizontalStack=0;resizeParent=1;resizeLast=0;collapsible=1;marginBottom=0;rounded=0;shadow=0;strokeWidth=1;fillColor=#c87cee;strokeColor=#9673a6;" parent="WIyWlLk6GJQsqaUBKTNV-1" vertex="1">
          <mxGeometry x="840" y="40" width="160" height="440" as="geometry">
            <mxRectangle x="230" y="140" width="160" height="26" as="alternateBounds" />
          </mxGeometry>
        </mxCell>
        <mxCell id="ufXeh0rlqe1aA6A5v5uA-14" value="-IdCliente&#xa;-IdMetadiaria" style="text;align=left;verticalAlign=top;spacingLeft=4;spacingRight=4;overflow=hidden;rotatable=0;points=[[0,0.5],[1,0.5]];portConstraint=eastwest;rounded=0;shadow=0;html=0;" parent="ufXeh0rlqe1aA6A5v5uA-13" vertex="1">
          <mxGeometry y="26" width="160" height="154" as="geometry" />
        </mxCell>
        <mxCell id="ufXeh0rlqe1aA6A5v5uA-15" value="" style="line;html=1;strokeWidth=1;align=left;verticalAlign=middle;spacingTop=-1;spacingLeft=3;spacingRight=3;rotatable=0;labelPosition=right;points=[];portConstraint=eastwest;" parent="ufXeh0rlqe1aA6A5v5uA-13" vertex="1">
          <mxGeometry y="180" width="160" height="8" as="geometry" />
        </mxCell>
        <mxCell id="ufXeh0rlqe1aA6A5v5uA-16" value="+SetIdCliente&#xa;+GetIdMetadiaria" style="text;align=left;verticalAlign=top;spacingLeft=4;spacingRight=4;overflow=hidden;rotatable=0;points=[[0,0.5],[1,0.5]];portConstraint=eastwest;" parent="ufXeh0rlqe1aA6A5v5uA-13" vertex="1">
          <mxGeometry y="188" width="160" height="242" as="geometry" />
        </mxCell>
        <mxCell id="ufXeh0rlqe1aA6A5v5uA-17" value="Materiaprima" style="swimlane;fontStyle=2;align=center;verticalAlign=top;childLayout=stackLayout;horizontal=1;startSize=26;horizontalStack=0;resizeParent=1;resizeLast=0;collapsible=1;marginBottom=0;rounded=0;shadow=0;strokeWidth=1;fillColor=#c87cee;strokeColor=#9673a6;" parent="WIyWlLk6GJQsqaUBKTNV-1" vertex="1">
          <mxGeometry x="1040" y="40" width="160" height="440" as="geometry">
            <mxRectangle x="230" y="140" width="160" height="26" as="alternateBounds" />
          </mxGeometry>
        </mxCell>
        <mxCell id="ufXeh0rlqe1aA6A5v5uA-18" value="- Nome&#xa;- Unidademedida&#xa;- IdMateriaprima" style="text;align=left;verticalAlign=top;spacingLeft=4;spacingRight=4;overflow=hidden;rotatable=0;points=[[0,0.5],[1,0.5]];portConstraint=eastwest;rounded=0;shadow=0;html=0;" parent="ufXeh0rlqe1aA6A5v5uA-17" vertex="1">
          <mxGeometry y="26" width="160" height="154" as="geometry" />
        </mxCell>
        <mxCell id="ufXeh0rlqe1aA6A5v5uA-19" value="" style="line;html=1;strokeWidth=1;align=left;verticalAlign=middle;spacingTop=-1;spacingLeft=3;spacingRight=3;rotatable=0;labelPosition=right;points=[];portConstraint=eastwest;" parent="ufXeh0rlqe1aA6A5v5uA-17" vertex="1">
          <mxGeometry y="180" width="160" height="8" as="geometry" />
        </mxCell>
        <mxCell id="ufXeh0rlqe1aA6A5v5uA-20" value="+SetNome&#xa;+GetNome&#xa;+SetUnidademedida&#xa;+GetUnidademedida " style="text;align=left;verticalAlign=top;spacingLeft=4;spacingRight=4;overflow=hidden;rotatable=0;points=[[0,0.5],[1,0.5]];portConstraint=eastwest;" parent="ufXeh0rlqe1aA6A5v5uA-17" vertex="1">
          <mxGeometry y="188" width="160" height="242" as="geometry" />
        </mxCell>
        <mxCell id="ufXeh0rlqe1aA6A5v5uA-21" value="Enviocorte" style="swimlane;fontStyle=2;align=center;verticalAlign=top;childLayout=stackLayout;horizontal=1;startSize=26;horizontalStack=0;resizeParent=1;resizeLast=0;collapsible=1;marginBottom=0;rounded=0;shadow=0;strokeWidth=1;fillColor=#c87cee;strokeColor=#9673a6;" parent="WIyWlLk6GJQsqaUBKTNV-1" vertex="1">
          <mxGeometry x="1800" y="520" width="160" height="440" as="geometry">
            <mxRectangle x="230" y="140" width="160" height="26" as="alternateBounds" />
          </mxGeometry>
        </mxCell>
        <mxCell id="ufXeh0rlqe1aA6A5v5uA-23" value="" style="line;html=1;strokeWidth=1;align=left;verticalAlign=middle;spacingTop=-1;spacingLeft=3;spacingRight=3;rotatable=0;labelPosition=right;points=[];portConstraint=eastwest;" parent="ufXeh0rlqe1aA6A5v5uA-21" vertex="1">
          <mxGeometry y="26" width="160" height="314" as="geometry" />
        </mxCell>
        <mxCell id="ufXeh0rlqe1aA6A5v5uA-25" value="Materiaprima_Enviocorte" style="swimlane;fontStyle=2;align=center;verticalAlign=top;childLayout=stackLayout;horizontal=1;startSize=26;horizontalStack=0;resizeParent=1;resizeLast=0;collapsible=1;marginBottom=0;rounded=0;shadow=0;strokeWidth=1;fillColor=#c87cee;strokeColor=#9673a6;" parent="WIyWlLk6GJQsqaUBKTNV-1" vertex="1">
          <mxGeometry x="1240" y="40" width="160" height="440" as="geometry">
            <mxRectangle x="230" y="140" width="160" height="26" as="alternateBounds" />
          </mxGeometry>
        </mxCell>
        <mxCell id="ufXeh0rlqe1aA6A5v5uA-26" value="-IdMateriaprima&#xa;-IdEnviocorte" style="text;align=left;verticalAlign=top;spacingLeft=4;spacingRight=4;overflow=hidden;rotatable=0;points=[[0,0.5],[1,0.5]];portConstraint=eastwest;rounded=0;shadow=0;html=0;" parent="ufXeh0rlqe1aA6A5v5uA-25" vertex="1">
          <mxGeometry y="26" width="160" height="154" as="geometry" />
        </mxCell>
        <mxCell id="ufXeh0rlqe1aA6A5v5uA-27" value="" style="line;html=1;strokeWidth=1;align=left;verticalAlign=middle;spacingTop=-1;spacingLeft=3;spacingRight=3;rotatable=0;labelPosition=right;points=[];portConstraint=eastwest;" parent="ufXeh0rlqe1aA6A5v5uA-25" vertex="1">
          <mxGeometry y="180" width="160" height="8" as="geometry" />
        </mxCell>
        <mxCell id="ufXeh0rlqe1aA6A5v5uA-28" value="+SetIdMateriaprima&#xa;+GetIdMateriaprima&#xa;+SetIdEnviocorte&#xa;+GetIdEnviocorte" style="text;align=left;verticalAlign=top;spacingLeft=4;spacingRight=4;overflow=hidden;rotatable=0;points=[[0,0.5],[1,0.5]];portConstraint=eastwest;" parent="ufXeh0rlqe1aA6A5v5uA-25" vertex="1">
          <mxGeometry y="188" width="160" height="242" as="geometry" />
        </mxCell>
        <mxCell id="ufXeh0rlqe1aA6A5v5uA-37" value="Materiaprima_Enviocostura" style="swimlane;fontStyle=2;align=center;verticalAlign=top;childLayout=stackLayout;horizontal=1;startSize=26;horizontalStack=0;resizeParent=1;resizeLast=0;collapsible=1;marginBottom=0;rounded=0;shadow=0;strokeWidth=1;fillColor=#c87cee;strokeColor=#9673a6;" parent="WIyWlLk6GJQsqaUBKTNV-1" vertex="1">
          <mxGeometry x="1440" y="40" width="160" height="440" as="geometry">
            <mxRectangle x="230" y="140" width="160" height="26" as="alternateBounds" />
          </mxGeometry>
        </mxCell>
        <mxCell id="ufXeh0rlqe1aA6A5v5uA-38" value="-IdMateriaprima&#xa;-IdEnviocostura" style="text;align=left;verticalAlign=top;spacingLeft=4;spacingRight=4;overflow=hidden;rotatable=0;points=[[0,0.5],[1,0.5]];portConstraint=eastwest;rounded=0;shadow=0;html=0;" parent="ufXeh0rlqe1aA6A5v5uA-37" vertex="1">
          <mxGeometry y="26" width="160" height="154" as="geometry" />
        </mxCell>
        <mxCell id="ufXeh0rlqe1aA6A5v5uA-39" value="" style="line;html=1;strokeWidth=1;align=left;verticalAlign=middle;spacingTop=-1;spacingLeft=3;spacingRight=3;rotatable=0;labelPosition=right;points=[];portConstraint=eastwest;" parent="ufXeh0rlqe1aA6A5v5uA-37" vertex="1">
          <mxGeometry y="180" width="160" height="8" as="geometry" />
        </mxCell>
        <mxCell id="ufXeh0rlqe1aA6A5v5uA-40" value="+SetIdMateriaprima&#xa;+GetIdMateriaprima&#xa;+SetIdEnviocostura&#xa;+GetIdEnviocostura" style="text;align=left;verticalAlign=top;spacingLeft=4;spacingRight=4;overflow=hidden;rotatable=0;points=[[0,0.5],[1,0.5]];portConstraint=eastwest;" parent="ufXeh0rlqe1aA6A5v5uA-37" vertex="1">
          <mxGeometry y="188" width="160" height="242" as="geometry" />
        </mxCell>
        <mxCell id="ufXeh0rlqe1aA6A5v5uA-41" value="Envioacabamento" style="swimlane;fontStyle=2;align=center;verticalAlign=top;childLayout=stackLayout;horizontal=1;startSize=26;horizontalStack=0;resizeParent=1;resizeLast=0;collapsible=1;marginBottom=0;rounded=0;shadow=0;strokeWidth=1;fillColor=#c87cee;strokeColor=#9673a6;" parent="WIyWlLk6GJQsqaUBKTNV-1" vertex="1">
          <mxGeometry x="2000" y="520" width="160" height="440" as="geometry">
            <mxRectangle x="230" y="140" width="160" height="26" as="alternateBounds" />
          </mxGeometry>
        </mxCell>
        <mxCell id="ufXeh0rlqe1aA6A5v5uA-43" value="" style="line;html=1;strokeWidth=1;align=left;verticalAlign=middle;spacingTop=-1;spacingLeft=3;spacingRight=3;rotatable=0;labelPosition=right;points=[];portConstraint=eastwest;" parent="ufXeh0rlqe1aA6A5v5uA-41" vertex="1">
          <mxGeometry y="26" width="160" height="314" as="geometry" />
        </mxCell>
        <mxCell id="ufXeh0rlqe1aA6A5v5uA-45" value="Materiaprima_Envioacabamento" style="swimlane;fontStyle=2;align=center;verticalAlign=top;childLayout=stackLayout;horizontal=1;startSize=26;horizontalStack=0;resizeParent=1;resizeLast=0;collapsible=1;marginBottom=0;rounded=0;shadow=0;strokeWidth=1;fillColor=#c87cee;strokeColor=#9673a6;" parent="WIyWlLk6GJQsqaUBKTNV-1" vertex="1">
          <mxGeometry x="1640" y="40" width="180" height="440" as="geometry">
            <mxRectangle x="230" y="140" width="160" height="26" as="alternateBounds" />
          </mxGeometry>
        </mxCell>
        <mxCell id="ufXeh0rlqe1aA6A5v5uA-46" value="-IdMateriaprima&#xa;-IdEnvioacabamento" style="text;align=left;verticalAlign=top;spacingLeft=4;spacingRight=4;overflow=hidden;rotatable=0;points=[[0,0.5],[1,0.5]];portConstraint=eastwest;rounded=0;shadow=0;html=0;" parent="ufXeh0rlqe1aA6A5v5uA-45" vertex="1">
          <mxGeometry y="26" width="180" height="154" as="geometry" />
        </mxCell>
        <mxCell id="ufXeh0rlqe1aA6A5v5uA-47" value="" style="line;html=1;strokeWidth=1;align=left;verticalAlign=middle;spacingTop=-1;spacingLeft=3;spacingRight=3;rotatable=0;labelPosition=right;points=[];portConstraint=eastwest;" parent="ufXeh0rlqe1aA6A5v5uA-45" vertex="1">
          <mxGeometry y="180" width="180" height="8" as="geometry" />
        </mxCell>
        <mxCell id="ufXeh0rlqe1aA6A5v5uA-48" value="+SetIdMateriaprima&#xa;+GetIdMateriaprima&#xa;+SetIdEnvioacabamento&#xa;+GetIdEnvioacabamento&#xa;" style="text;align=left;verticalAlign=top;spacingLeft=4;spacingRight=4;overflow=hidden;rotatable=0;points=[[0,0.5],[1,0.5]];portConstraint=eastwest;" parent="ufXeh0rlqe1aA6A5v5uA-45" vertex="1">
          <mxGeometry y="188" width="180" height="242" as="geometry" />
        </mxCell>
        <mxCell id="ufXeh0rlqe1aA6A5v5uA-49" value="ClienteController" style="swimlane;fontStyle=2;align=center;verticalAlign=top;childLayout=stackLayout;horizontal=1;startSize=26;horizontalStack=0;resizeParent=1;resizeLast=0;collapsible=1;marginBottom=0;rounded=0;shadow=0;strokeWidth=1;fillColor=#c247ff;strokeColor=#006EAF;fontColor=#1C1C1C;" parent="WIyWlLk6GJQsqaUBKTNV-1" vertex="1">
          <mxGeometry x="40" y="600" width="160" height="440" as="geometry">
            <mxRectangle x="230" y="140" width="160" height="26" as="alternateBounds" />
          </mxGeometry>
        </mxCell>
        <mxCell id="ufXeh0rlqe1aA6A5v5uA-50" value="-BD" style="text;align=left;verticalAlign=top;spacingLeft=4;spacingRight=4;overflow=hidden;rotatable=0;points=[[0,0.5],[1,0.5]];portConstraint=eastwest;rounded=0;shadow=0;html=0;" parent="ufXeh0rlqe1aA6A5v5uA-49" vertex="1">
          <mxGeometry y="26" width="160" height="154" as="geometry" />
        </mxCell>
        <mxCell id="ufXeh0rlqe1aA6A5v5uA-51" value="" style="line;html=1;strokeWidth=1;align=left;verticalAlign=middle;spacingTop=-1;spacingLeft=3;spacingRight=3;rotatable=0;labelPosition=right;points=[];portConstraint=eastwest;" parent="ufXeh0rlqe1aA6A5v5uA-49" vertex="1">
          <mxGeometry y="180" width="160" height="8" as="geometry" />
        </mxCell>
        <mxCell id="ufXeh0rlqe1aA6A5v5uA-52" value="+SalvarCliente&#xa;+BuscarCliente&#xa;+ApagarCliente&#xa;+ CadastrarCliente&#xa;+ ViewCliente" style="text;align=left;verticalAlign=top;spacingLeft=4;spacingRight=4;overflow=hidden;rotatable=0;points=[[0,0.5],[1,0.5]];portConstraint=eastwest;" parent="ufXeh0rlqe1aA6A5v5uA-49" vertex="1">
          <mxGeometry y="188" width="160" height="252" as="geometry" />
        </mxCell>
        <mxCell id="ufXeh0rlqe1aA6A5v5uA-53" value="LoteController" style="swimlane;fontStyle=2;align=center;verticalAlign=top;childLayout=stackLayout;horizontal=1;startSize=26;horizontalStack=0;resizeParent=1;resizeLast=0;collapsible=1;marginBottom=0;rounded=0;shadow=0;strokeWidth=1;fillColor=#c247ff;strokeColor=#006EAF;fontColor=#1C1C1C;" parent="WIyWlLk6GJQsqaUBKTNV-1" vertex="1">
          <mxGeometry x="240" y="600" width="160" height="440" as="geometry">
            <mxRectangle x="230" y="140" width="160" height="26" as="alternateBounds" />
          </mxGeometry>
        </mxCell>
        <mxCell id="ufXeh0rlqe1aA6A5v5uA-54" value="-BD" style="text;align=left;verticalAlign=top;spacingLeft=4;spacingRight=4;overflow=hidden;rotatable=0;points=[[0,0.5],[1,0.5]];portConstraint=eastwest;rounded=0;shadow=0;html=0;" parent="ufXeh0rlqe1aA6A5v5uA-53" vertex="1">
          <mxGeometry y="26" width="160" height="154" as="geometry" />
        </mxCell>
        <mxCell id="ufXeh0rlqe1aA6A5v5uA-55" value="" style="line;html=1;strokeWidth=1;align=left;verticalAlign=middle;spacingTop=-1;spacingLeft=3;spacingRight=3;rotatable=0;labelPosition=right;points=[];portConstraint=eastwest;" parent="ufXeh0rlqe1aA6A5v5uA-53" vertex="1">
          <mxGeometry y="180" width="160" height="8" as="geometry" />
        </mxCell>
        <mxCell id="ufXeh0rlqe1aA6A5v5uA-56" value="+SalvarLote&#xa;+BuscarLote&#xa;+ApagarLote&#xa;+ CadastrarLote&#xa;+ ViewLote" style="text;align=left;verticalAlign=top;spacingLeft=4;spacingRight=4;overflow=hidden;rotatable=0;points=[[0,0.5],[1,0.5]];portConstraint=eastwest;" parent="ufXeh0rlqe1aA6A5v5uA-53" vertex="1">
          <mxGeometry y="188" width="160" height="252" as="geometry" />
        </mxCell>
        <mxCell id="ufXeh0rlqe1aA6A5v5uA-61" value="MateriaprimaController" style="swimlane;fontStyle=2;align=center;verticalAlign=top;childLayout=stackLayout;horizontal=1;startSize=26;horizontalStack=0;resizeParent=1;resizeLast=0;collapsible=1;marginBottom=0;rounded=0;shadow=0;strokeWidth=1;fillColor=#c247ff;strokeColor=#006EAF;fontColor=#1C1C1C;" parent="WIyWlLk6GJQsqaUBKTNV-1" vertex="1">
          <mxGeometry x="440" y="600" width="160" height="440" as="geometry">
            <mxRectangle x="230" y="140" width="160" height="26" as="alternateBounds" />
          </mxGeometry>
        </mxCell>
        <mxCell id="ufXeh0rlqe1aA6A5v5uA-62" value="-BD" style="text;align=left;verticalAlign=top;spacingLeft=4;spacingRight=4;overflow=hidden;rotatable=0;points=[[0,0.5],[1,0.5]];portConstraint=eastwest;rounded=0;shadow=0;html=0;" parent="ufXeh0rlqe1aA6A5v5uA-61" vertex="1">
          <mxGeometry y="26" width="160" height="154" as="geometry" />
        </mxCell>
        <mxCell id="ufXeh0rlqe1aA6A5v5uA-63" value="" style="line;html=1;strokeWidth=1;align=left;verticalAlign=middle;spacingTop=-1;spacingLeft=3;spacingRight=3;rotatable=0;labelPosition=right;points=[];portConstraint=eastwest;" parent="ufXeh0rlqe1aA6A5v5uA-61" vertex="1">
          <mxGeometry y="180" width="160" height="8" as="geometry" />
        </mxCell>
        <mxCell id="ufXeh0rlqe1aA6A5v5uA-64" value="+SalvarMateriaprima&#xa;+BuscarMateriaprima&#xa;+ApagarMateriaprima&#xa;+ CadastrarMateriprima&#xa;+ ViewMateriaprima" style="text;align=left;verticalAlign=top;spacingLeft=4;spacingRight=4;overflow=hidden;rotatable=0;points=[[0,0.5],[1,0.5]];portConstraint=eastwest;" parent="ufXeh0rlqe1aA6A5v5uA-61" vertex="1">
          <mxGeometry y="188" width="160" height="252" as="geometry" />
        </mxCell>
        <mxCell id="ufXeh0rlqe1aA6A5v5uA-65" value="MetadiariaController" style="swimlane;fontStyle=2;align=center;verticalAlign=top;childLayout=stackLayout;horizontal=1;startSize=26;horizontalStack=0;resizeParent=1;resizeLast=0;collapsible=1;marginBottom=0;rounded=0;shadow=0;strokeWidth=1;fillColor=#c247ff;strokeColor=#006EAF;fontColor=#1C1C1C;" parent="WIyWlLk6GJQsqaUBKTNV-1" vertex="1">
          <mxGeometry x="640" y="600" width="160" height="440" as="geometry">
            <mxRectangle x="230" y="140" width="160" height="26" as="alternateBounds" />
          </mxGeometry>
        </mxCell>
        <mxCell id="ufXeh0rlqe1aA6A5v5uA-66" value="-BD" style="text;align=left;verticalAlign=top;spacingLeft=4;spacingRight=4;overflow=hidden;rotatable=0;points=[[0,0.5],[1,0.5]];portConstraint=eastwest;rounded=0;shadow=0;html=0;" parent="ufXeh0rlqe1aA6A5v5uA-65" vertex="1">
          <mxGeometry y="26" width="160" height="154" as="geometry" />
        </mxCell>
        <mxCell id="ufXeh0rlqe1aA6A5v5uA-67" value="" style="line;html=1;strokeWidth=1;align=left;verticalAlign=middle;spacingTop=-1;spacingLeft=3;spacingRight=3;rotatable=0;labelPosition=right;points=[];portConstraint=eastwest;" parent="ufXeh0rlqe1aA6A5v5uA-65" vertex="1">
          <mxGeometry y="180" width="160" height="8" as="geometry" />
        </mxCell>
        <mxCell id="ufXeh0rlqe1aA6A5v5uA-68" value="+SalvarMetadiaria&#xa;+BuscarMetadiaria&#xa;+ApagarMetadiaria&#xa;+ CadastrarMetadiaria&#xa;+ ViewMetadiaria" style="text;align=left;verticalAlign=top;spacingLeft=4;spacingRight=4;overflow=hidden;rotatable=0;points=[[0,0.5],[1,0.5]];portConstraint=eastwest;" parent="ufXeh0rlqe1aA6A5v5uA-65" vertex="1">
          <mxGeometry y="188" width="160" height="252" as="geometry" />
        </mxCell>
        <mxCell id="ufXeh0rlqe1aA6A5v5uA-69" value="CortadorController" style="swimlane;fontStyle=2;align=center;verticalAlign=top;childLayout=stackLayout;horizontal=1;startSize=26;horizontalStack=0;resizeParent=1;resizeLast=0;collapsible=1;marginBottom=0;rounded=0;shadow=0;strokeWidth=1;fillColor=#c247ff;strokeColor=#006EAF;fontColor=#1C1C1C;" parent="WIyWlLk6GJQsqaUBKTNV-1" vertex="1">
          <mxGeometry x="840" y="600" width="160" height="440" as="geometry">
            <mxRectangle x="230" y="140" width="160" height="26" as="alternateBounds" />
          </mxGeometry>
        </mxCell>
        <mxCell id="ufXeh0rlqe1aA6A5v5uA-70" value="-BD" style="text;align=left;verticalAlign=top;spacingLeft=4;spacingRight=4;overflow=hidden;rotatable=0;points=[[0,0.5],[1,0.5]];portConstraint=eastwest;rounded=0;shadow=0;html=0;" parent="ufXeh0rlqe1aA6A5v5uA-69" vertex="1">
          <mxGeometry y="26" width="160" height="154" as="geometry" />
        </mxCell>
        <mxCell id="ufXeh0rlqe1aA6A5v5uA-71" value="" style="line;html=1;strokeWidth=1;align=left;verticalAlign=middle;spacingTop=-1;spacingLeft=3;spacingRight=3;rotatable=0;labelPosition=right;points=[];portConstraint=eastwest;" parent="ufXeh0rlqe1aA6A5v5uA-69" vertex="1">
          <mxGeometry y="180" width="160" height="8" as="geometry" />
        </mxCell>
        <mxCell id="ufXeh0rlqe1aA6A5v5uA-72" value="+SalvarCortador&#xa;+BuscarCortador&#xa;+ApagarCortador&#xa;+ CadastrarCortador&#xa;+ ViewCortador" style="text;align=left;verticalAlign=top;spacingLeft=4;spacingRight=4;overflow=hidden;rotatable=0;points=[[0,0.5],[1,0.5]];portConstraint=eastwest;" parent="ufXeh0rlqe1aA6A5v5uA-69" vertex="1">
          <mxGeometry y="188" width="160" height="252" as="geometry" />
        </mxCell>
        <mxCell id="ufXeh0rlqe1aA6A5v5uA-73" value="CostureiroController" style="swimlane;fontStyle=2;align=center;verticalAlign=top;childLayout=stackLayout;horizontal=1;startSize=26;horizontalStack=0;resizeParent=1;resizeLast=0;collapsible=1;marginBottom=0;rounded=0;shadow=0;strokeWidth=1;fillColor=#c247ff;strokeColor=#006EAF;fontColor=#1C1C1C;" parent="WIyWlLk6GJQsqaUBKTNV-1" vertex="1">
          <mxGeometry x="1040" y="600" width="160" height="440" as="geometry">
            <mxRectangle x="230" y="140" width="160" height="26" as="alternateBounds" />
          </mxGeometry>
        </mxCell>
        <mxCell id="ufXeh0rlqe1aA6A5v5uA-74" value="-BD" style="text;align=left;verticalAlign=top;spacingLeft=4;spacingRight=4;overflow=hidden;rotatable=0;points=[[0,0.5],[1,0.5]];portConstraint=eastwest;rounded=0;shadow=0;html=0;" parent="ufXeh0rlqe1aA6A5v5uA-73" vertex="1">
          <mxGeometry y="26" width="160" height="154" as="geometry" />
        </mxCell>
        <mxCell id="ufXeh0rlqe1aA6A5v5uA-75" value="" style="line;html=1;strokeWidth=1;align=left;verticalAlign=middle;spacingTop=-1;spacingLeft=3;spacingRight=3;rotatable=0;labelPosition=right;points=[];portConstraint=eastwest;" parent="ufXeh0rlqe1aA6A5v5uA-73" vertex="1">
          <mxGeometry y="180" width="160" height="8" as="geometry" />
        </mxCell>
        <mxCell id="ufXeh0rlqe1aA6A5v5uA-76" value="+SalvarCostureiro&#xa;+BuscarCostureiro&#xa;+ApagarCostureiro&#xa;+ CadastrarCostureiro&#xa;+ ViewCostureiro " style="text;align=left;verticalAlign=top;spacingLeft=4;spacingRight=4;overflow=hidden;rotatable=0;points=[[0,0.5],[1,0.5]];portConstraint=eastwest;" parent="ufXeh0rlqe1aA6A5v5uA-73" vertex="1">
          <mxGeometry y="188" width="160" height="252" as="geometry" />
        </mxCell>
        <mxCell id="ufXeh0rlqe1aA6A5v5uA-77" value="AcabamentistaController" style="swimlane;fontStyle=2;align=center;verticalAlign=top;childLayout=stackLayout;horizontal=1;startSize=26;horizontalStack=0;resizeParent=1;resizeLast=0;collapsible=1;marginBottom=0;rounded=0;shadow=0;strokeWidth=1;fillColor=#c247ff;strokeColor=#006EAF;fontColor=#1C1C1C;" parent="WIyWlLk6GJQsqaUBKTNV-1" vertex="1">
          <mxGeometry x="1240" y="600" width="160" height="440" as="geometry">
            <mxRectangle x="230" y="140" width="160" height="26" as="alternateBounds" />
          </mxGeometry>
        </mxCell>
        <mxCell id="ufXeh0rlqe1aA6A5v5uA-78" value="-BD" style="text;align=left;verticalAlign=top;spacingLeft=4;spacingRight=4;overflow=hidden;rotatable=0;points=[[0,0.5],[1,0.5]];portConstraint=eastwest;rounded=0;shadow=0;html=0;" parent="ufXeh0rlqe1aA6A5v5uA-77" vertex="1">
          <mxGeometry y="26" width="160" height="154" as="geometry" />
        </mxCell>
        <mxCell id="ufXeh0rlqe1aA6A5v5uA-79" value="" style="line;html=1;strokeWidth=1;align=left;verticalAlign=middle;spacingTop=-1;spacingLeft=3;spacingRight=3;rotatable=0;labelPosition=right;points=[];portConstraint=eastwest;" parent="ufXeh0rlqe1aA6A5v5uA-77" vertex="1">
          <mxGeometry y="180" width="160" height="8" as="geometry" />
        </mxCell>
        <mxCell id="ufXeh0rlqe1aA6A5v5uA-80" value="+SalvarAcabamentista &#xa;+BuscarAcabamentista&#xa;+ApagarAcabamentista&#xa;+ CadastrarAcabamentista&#xa;+ ViewAcabamentista " style="text;align=left;verticalAlign=top;spacingLeft=4;spacingRight=4;overflow=hidden;rotatable=0;points=[[0,0.5],[1,0.5]];portConstraint=eastwest;" parent="ufXeh0rlqe1aA6A5v5uA-77" vertex="1">
          <mxGeometry y="188" width="160" height="252" as="geometry" />
        </mxCell>
        <mxCell id="ufXeh0rlqe1aA6A5v5uA-81" value="&lt;font style=&quot;font-size: 12px;&quot;&gt;MODELO&lt;/font&gt;" style="text;strokeColor=none;fillColor=none;html=1;fontSize=24;fontStyle=1;verticalAlign=middle;align=center;" parent="WIyWlLk6GJQsqaUBKTNV-1" vertex="1">
          <mxGeometry x="60" y="10" width="100" height="20" as="geometry" />
        </mxCell>
        <mxCell id="ufXeh0rlqe1aA6A5v5uA-82" value="&lt;span style=&quot;font-size: 12px;&quot;&gt;CONTROLE&lt;/span&gt;" style="text;strokeColor=none;fillColor=none;html=1;fontSize=24;fontStyle=1;verticalAlign=middle;align=center;" parent="WIyWlLk6GJQsqaUBKTNV-1" vertex="1">
          <mxGeometry x="60" y="565" width="100" height="20" as="geometry" />
        </mxCell>
        <mxCell id="ufXeh0rlqe1aA6A5v5uA-33" value="Enviocostura" style="swimlane;fontStyle=2;align=center;verticalAlign=top;childLayout=stackLayout;horizontal=1;startSize=26;horizontalStack=0;resizeParent=1;resizeLast=0;collapsible=1;marginBottom=0;rounded=0;shadow=0;strokeWidth=1;fillColor=#c87cee;strokeColor=#9673a6;" parent="WIyWlLk6GJQsqaUBKTNV-1" vertex="1">
          <mxGeometry x="2200" y="520" width="160" height="440" as="geometry">
            <mxRectangle x="230" y="140" width="160" height="26" as="alternateBounds" />
          </mxGeometry>
        </mxCell>
        <mxCell id="ufXeh0rlqe1aA6A5v5uA-35" value="" style="line;html=1;strokeWidth=1;align=left;verticalAlign=middle;spacingTop=-1;spacingLeft=3;spacingRight=3;rotatable=0;labelPosition=right;points=[];portConstraint=eastwest;" parent="ufXeh0rlqe1aA6A5v5uA-33" vertex="1">
          <mxGeometry y="26" width="160" height="314" as="geometry" />
        </mxCell>
        <mxCell id="pzlqiPW8KXP_UYyxUT0T-0" value="Envio" style="swimlane;fontStyle=2;align=center;verticalAlign=top;childLayout=stackLayout;horizontal=1;startSize=26;horizontalStack=0;resizeParent=1;resizeLast=0;collapsible=1;marginBottom=0;rounded=0;shadow=0;strokeWidth=1;fillColor=#c87cee;strokeColor=#9673a6;" parent="WIyWlLk6GJQsqaUBKTNV-1" vertex="1">
          <mxGeometry x="2000" y="40" width="160" height="440" as="geometry">
            <mxRectangle x="230" y="140" width="160" height="26" as="alternateBounds" />
          </mxGeometry>
        </mxCell>
        <mxCell id="pzlqiPW8KXP_UYyxUT0T-1" value="-NomeColadorador&#xa;-Matériaprima&#xa;-Quantidade&#xa;-IdEnvio" style="text;align=left;verticalAlign=top;spacingLeft=4;spacingRight=4;overflow=hidden;rotatable=0;points=[[0,0.5],[1,0.5]];portConstraint=eastwest;rounded=0;shadow=0;html=0;" parent="pzlqiPW8KXP_UYyxUT0T-0" vertex="1">
          <mxGeometry y="26" width="160" height="154" as="geometry" />
        </mxCell>
        <mxCell id="pzlqiPW8KXP_UYyxUT0T-2" value="" style="line;html=1;strokeWidth=1;align=left;verticalAlign=middle;spacingTop=-1;spacingLeft=3;spacingRight=3;rotatable=0;labelPosition=right;points=[];portConstraint=eastwest;" parent="pzlqiPW8KXP_UYyxUT0T-0" vertex="1">
          <mxGeometry y="180" width="160" height="8" as="geometry" />
        </mxCell>
        <mxCell id="pzlqiPW8KXP_UYyxUT0T-3" value="+SetNomeacabamentista&#xa;+GetNomeacabamentista&#xa;+SetMateriaprima&#xa;+GetMateriaprima&#xa;+SetQuantidade&#xa;+GetQuantidade" style="text;align=left;verticalAlign=top;spacingLeft=4;spacingRight=4;overflow=hidden;rotatable=0;points=[[0,0.5],[1,0.5]];portConstraint=eastwest;" parent="pzlqiPW8KXP_UYyxUT0T-0" vertex="1">
          <mxGeometry y="188" width="160" height="252" as="geometry" />
        </mxCell>
        <mxCell id="pzlqiPW8KXP_UYyxUT0T-5" style="edgeStyle=orthogonalEdgeStyle;rounded=0;orthogonalLoop=1;jettySize=auto;html=1;exitX=1;exitY=0.5;exitDx=0;exitDy=0;entryX=0.5;entryY=0;entryDx=0;entryDy=0;" parent="WIyWlLk6GJQsqaUBKTNV-1" source="pzlqiPW8KXP_UYyxUT0T-3" target="ufXeh0rlqe1aA6A5v5uA-33" edge="1">
          <mxGeometry relative="1" as="geometry" />
        </mxCell>
        <mxCell id="pzlqiPW8KXP_UYyxUT0T-6" style="edgeStyle=orthogonalEdgeStyle;rounded=0;orthogonalLoop=1;jettySize=auto;html=1;exitX=0;exitY=0.5;exitDx=0;exitDy=0;" parent="WIyWlLk6GJQsqaUBKTNV-1" source="pzlqiPW8KXP_UYyxUT0T-3" target="ufXeh0rlqe1aA6A5v5uA-21" edge="1">
          <mxGeometry relative="1" as="geometry" />
        </mxCell>
        <mxCell id="pzlqiPW8KXP_UYyxUT0T-7" value="" style="endArrow=classic;html=1;rounded=0;exitX=0.488;exitY=1.008;exitDx=0;exitDy=0;exitPerimeter=0;entryX=0.5;entryY=0;entryDx=0;entryDy=0;" parent="WIyWlLk6GJQsqaUBKTNV-1" source="pzlqiPW8KXP_UYyxUT0T-3" target="ufXeh0rlqe1aA6A5v5uA-41" edge="1">
          <mxGeometry width="50" height="50" relative="1" as="geometry">
            <mxPoint x="1930" y="400" as="sourcePoint" />
            <mxPoint x="1980" y="350" as="targetPoint" />
            <Array as="points">
              <mxPoint x="2080" y="520" />
            </Array>
          </mxGeometry>
        </mxCell>
        <mxCell id="pzlqiPW8KXP_UYyxUT0T-8" value="Costureiro " style="swimlane;fontStyle=2;align=center;verticalAlign=top;childLayout=stackLayout;horizontal=1;startSize=26;horizontalStack=0;resizeParent=1;resizeLast=0;collapsible=1;marginBottom=0;rounded=0;shadow=0;strokeWidth=1;fillColor=#c87cee;strokeColor=#9673a6;" parent="WIyWlLk6GJQsqaUBKTNV-1" vertex="1">
          <mxGeometry x="2560" y="520" width="160" height="440" as="geometry">
            <mxRectangle x="230" y="140" width="160" height="26" as="alternateBounds" />
          </mxGeometry>
        </mxCell>
        <mxCell id="pzlqiPW8KXP_UYyxUT0T-10" value="" style="line;html=1;strokeWidth=1;align=left;verticalAlign=middle;spacingTop=-1;spacingLeft=3;spacingRight=3;rotatable=0;labelPosition=right;points=[];portConstraint=eastwest;" parent="pzlqiPW8KXP_UYyxUT0T-8" vertex="1">
          <mxGeometry y="26" width="160" height="344" as="geometry" />
        </mxCell>
        <mxCell id="pzlqiPW8KXP_UYyxUT0T-12" value="Cortador " style="swimlane;fontStyle=2;align=center;verticalAlign=top;childLayout=stackLayout;horizontal=1;startSize=26;horizontalStack=0;resizeParent=1;resizeLast=0;collapsible=1;marginBottom=0;rounded=0;shadow=0;strokeWidth=1;fillColor=#c87cee;strokeColor=#9673a6;" parent="WIyWlLk6GJQsqaUBKTNV-1" vertex="1">
          <mxGeometry x="2760" y="520" width="160" height="440" as="geometry">
            <mxRectangle x="230" y="140" width="160" height="26" as="alternateBounds" />
          </mxGeometry>
        </mxCell>
        <mxCell id="pzlqiPW8KXP_UYyxUT0T-14" value="" style="line;html=1;strokeWidth=1;align=left;verticalAlign=middle;spacingTop=-1;spacingLeft=3;spacingRight=3;rotatable=0;labelPosition=right;points=[];portConstraint=eastwest;" parent="pzlqiPW8KXP_UYyxUT0T-12" vertex="1">
          <mxGeometry y="26" width="160" height="344" as="geometry" />
        </mxCell>
        <mxCell id="pzlqiPW8KXP_UYyxUT0T-16" value="Acabamentista" style="swimlane;fontStyle=2;align=center;verticalAlign=top;childLayout=stackLayout;horizontal=1;startSize=26;horizontalStack=0;resizeParent=1;resizeLast=0;collapsible=1;marginBottom=0;rounded=0;shadow=0;strokeWidth=1;fillColor=#c87cee;strokeColor=#9673a6;" parent="WIyWlLk6GJQsqaUBKTNV-1" vertex="1">
          <mxGeometry x="2960" y="520" width="160" height="440" as="geometry">
            <mxRectangle x="230" y="140" width="160" height="26" as="alternateBounds" />
          </mxGeometry>
        </mxCell>
        <mxCell id="pzlqiPW8KXP_UYyxUT0T-18" value="" style="line;html=1;strokeWidth=1;align=left;verticalAlign=middle;spacingTop=-1;spacingLeft=3;spacingRight=3;rotatable=0;labelPosition=right;points=[];portConstraint=eastwest;" parent="pzlqiPW8KXP_UYyxUT0T-16" vertex="1">
          <mxGeometry y="26" width="160" height="344" as="geometry" />
        </mxCell>
        <mxCell id="pzlqiPW8KXP_UYyxUT0T-20" value="Coladorador" style="swimlane;fontStyle=2;align=center;verticalAlign=top;childLayout=stackLayout;horizontal=1;startSize=26;horizontalStack=0;resizeParent=1;resizeLast=0;collapsible=1;marginBottom=0;rounded=0;shadow=0;strokeWidth=1;fillColor=#c87cee;strokeColor=#9673a6;" parent="WIyWlLk6GJQsqaUBKTNV-1" vertex="1">
          <mxGeometry x="2760" y="40" width="160" height="440" as="geometry">
            <mxRectangle x="230" y="140" width="160" height="26" as="alternateBounds" />
          </mxGeometry>
        </mxCell>
        <mxCell id="pzlqiPW8KXP_UYyxUT0T-21" value="-NomeColadorador&#xa;-Telefone&#xa;-IdColadorador" style="text;align=left;verticalAlign=top;spacingLeft=4;spacingRight=4;overflow=hidden;rotatable=0;points=[[0,0.5],[1,0.5]];portConstraint=eastwest;rounded=0;shadow=0;html=0;" parent="pzlqiPW8KXP_UYyxUT0T-20" vertex="1">
          <mxGeometry y="26" width="160" height="154" as="geometry" />
        </mxCell>
        <mxCell id="pzlqiPW8KXP_UYyxUT0T-22" value="" style="line;html=1;strokeWidth=1;align=left;verticalAlign=middle;spacingTop=-1;spacingLeft=3;spacingRight=3;rotatable=0;labelPosition=right;points=[];portConstraint=eastwest;" parent="pzlqiPW8KXP_UYyxUT0T-20" vertex="1">
          <mxGeometry y="180" width="160" height="8" as="geometry" />
        </mxCell>
        <mxCell id="pzlqiPW8KXP_UYyxUT0T-23" value="+SetNomeacabamentista&#xa;+GetNomeacabamentista&#xa;+SetMateriaprima&#xa;+GetMateriaprima&#xa;+SetQuantidade&#xa;+GetQuantidade" style="text;align=left;verticalAlign=top;spacingLeft=4;spacingRight=4;overflow=hidden;rotatable=0;points=[[0,0.5],[1,0.5]];portConstraint=eastwest;" parent="pzlqiPW8KXP_UYyxUT0T-20" vertex="1">
          <mxGeometry y="188" width="160" height="252" as="geometry" />
        </mxCell>
        <mxCell id="pzlqiPW8KXP_UYyxUT0T-24" style="edgeStyle=orthogonalEdgeStyle;rounded=0;orthogonalLoop=1;jettySize=auto;html=1;exitX=0;exitY=0.5;exitDx=0;exitDy=0;" parent="WIyWlLk6GJQsqaUBKTNV-1" source="pzlqiPW8KXP_UYyxUT0T-23" target="pzlqiPW8KXP_UYyxUT0T-8" edge="1">
          <mxGeometry relative="1" as="geometry" />
        </mxCell>
        <mxCell id="pzlqiPW8KXP_UYyxUT0T-25" style="edgeStyle=orthogonalEdgeStyle;rounded=0;orthogonalLoop=1;jettySize=auto;html=1;exitX=1;exitY=0.5;exitDx=0;exitDy=0;entryX=0.5;entryY=0;entryDx=0;entryDy=0;" parent="WIyWlLk6GJQsqaUBKTNV-1" source="pzlqiPW8KXP_UYyxUT0T-23" target="pzlqiPW8KXP_UYyxUT0T-16" edge="1">
          <mxGeometry relative="1" as="geometry">
            <mxPoint x="3070" y="550" as="targetPoint" />
          </mxGeometry>
        </mxCell>
        <mxCell id="pzlqiPW8KXP_UYyxUT0T-27" value="" style="endArrow=classic;html=1;rounded=0;exitX=0.538;exitY=1.012;exitDx=0;exitDy=0;exitPerimeter=0;entryX=0.5;entryY=0;entryDx=0;entryDy=0;" parent="WIyWlLk6GJQsqaUBKTNV-1" source="pzlqiPW8KXP_UYyxUT0T-23" target="pzlqiPW8KXP_UYyxUT0T-12" edge="1">
          <mxGeometry width="50" height="50" relative="1" as="geometry">
            <mxPoint x="2500" y="540" as="sourcePoint" />
            <mxPoint x="2550" y="490" as="targetPoint" />
          </mxGeometry>
        </mxCell>
      </root>
    </mxGraphModel>
  </diagram>
</mxfile>
